<svg xmlns="http://www.w3.org/2000/svg" viewBox="0 0 644.16 719"><defs><style>.cls-1{fill:#ffffff;}.cls-2{fill:#ffffff;}</style></defs><title>naval vectorAsset 3</title><g id="Layer_2" data-name="Layer 2"><g id="Layer_1-2" data-name="Layer 1"><polygon class="cls-1" points="307.65 0 334.65 55 334.65 534 307.65 534 307.65 0"/><path class="cls-1" d="M321.15,534C185.92,534,67.21,489.36,0,422.15,35.45,501.28,105.61,567.39,208.15,610c90.57,37.64,113,109,113,109s27-75,110-109c109.39-44.81,179-110.71,213-189.72C577.29,488.53,457.64,534,321.15,534Z"/><path class="cls-2" d="M351.93,83h0A518.39,518.39,0,0,0,642.18,293.94l2,.56h0a399.82,399.82,0,0,0-287.5,215.65l-4.72,9.51h0A1334.21,1334.21,0,0,0,351.93,83Z"/></g></g></svg>
